<?xml version="1.0" encoding="iso-8859-1"?>
<!-- Generator: Adobe Illustrator 16.0.0, SVG Export Plug-In . SVG Version: 6.00 Build 0)  -->
<!DOCTYPE svg PUBLIC "-//W3C//DTD SVG 1.1//EN" "http://www.w3.org/Graphics/SVG/1.1/DTD/svg11.dtd">
<svg xmlns="http://www.w3.org/2000/svg" xmlns:xlink="http://www.w3.org/1999/xlink" version="1.1" id="Capa_1" x="0px" y="0px" width="512px" height="512px" viewBox="0 0 46.342 46.342" style="enable-background:new 0 0 46.342 46.342;" xml:space="preserve">
<g>
	<path d="M45.749,32.808L12.497,1.066c-0.766-0.732-1.979-0.703-2.708,0.062c-0.73,0.765-0.702,1.977,0.063,2.707l4.503,4.299   l-6.613,6.929l-4.504-4.299c-0.766-0.732-1.978-0.703-2.708,0.063c-0.73,0.765-0.702,1.978,0.063,2.708l33.254,31.741   c0.371,0.354,0.847,0.529,1.322,0.529c0.505,0,1.01-0.197,1.386-0.593c0.729-0.766,0.702-1.978-0.063-2.708l-4.503-4.299   l6.613-6.928l4.503,4.298c0.371,0.354,0.847,0.53,1.322,0.53c0.505,0,1.01-0.198,1.386-0.594   C46.543,34.751,46.514,33.539,45.749,32.808z M20.903,27.629l6.613-6.929l3.463,3.306l-6.612,6.929L20.903,27.629z M15.361,22.338   l6.613-6.929l3.464,3.307l-6.613,6.927L15.361,22.338z M16.433,10.119l3.463,3.307l-6.613,6.929l-3.463-3.307L16.433,10.119z    M29.911,36.224l-3.465-3.306l6.613-6.929l3.464,3.306L29.911,36.224z" fill="#FFFFFF"/>
</g>
<g>
</g>
<g>
</g>
<g>
</g>
<g>
</g>
<g>
</g>
<g>
</g>
<g>
</g>
<g>
</g>
<g>
</g>
<g>
</g>
<g>
</g>
<g>
</g>
<g>
</g>
<g>
</g>
<g>
</g>
</svg>
